<svg viewBox="0 0 429.7 69.09" xmlns="http://www.w3.org/2000/svg"><g fill="#36556c"><path d="m102.12 21.04c-1.41-.38-3.05-.59-4.96-.59-5.1 0-11.54 1.37-14.95 3.61v-17.94h-7.66v42.65h7.66v-17.77c3.13-2.69 8.15-4.43 12.16-4.43 5.15 0 7.75.71 7.75 5.8v16.4h7.66v-42.65h-7.66z"/><path d="m132.36 15.14c-9.9 0-15.2 6.73-15.2 17.17s5.3 17.28 15.31 17.28c8.53 0 12.8-4.98 14-11.32h-7c-.87 3.44-3.17 5.85-7 5.85-5.03 0-7.76-3.99-8.15-9.95h22.53v-1.8c0-11.26-5.14-17.23-14.49-17.23zm-7.99 14.11c.6-5.74 3.34-8.8 7.93-8.8s7.05 3.12 7.33 8.8z"/><path d="m175.33 20.23h-1.31c-1.31-2.79-4.27-5.03-9.02-5.03-8.75 0-13.29 6.84-13.29 17.12s4.43 17.17 13.29 17.17c4.81 0 7.71-2.3 9.02-4.98h1.31v4.27h6.73v-32.82h-6.73zm-8.69 23.67c-4.65 0-7.33-4.05-7.33-11.54s2.68-11.59 7.33-11.59c4.98 0 8.15 4.54 8.15 11.59s-3.17 11.54-8.15 11.54z"/><path d="m199.45 21.76h-1.31v-5.8h-6.67v32.81h7.38v-16.4c0-6.73 2.51-9.95 8.91-9.95h2.02v-6.78h-1.42c-6.4 0-8.26 3.12-8.91 6.12z"/><path d="m220.17 3.71c-2.73 0-4.21 1.64-4.21 4.05s1.48 3.99 4.21 3.99 4.16-1.59 4.16-3.99-1.48-4.05-4.16-4.05z"/><path d="m216.45 15.96h7.38v32.81h-7.38z"/><path d="m291.14 20.06h-1.31c-1.26-2.79-3.83-4.92-8.64-4.92-8.53 0-13.12 6.51-13.12 16.3s4.81 16.46 13.12 16.46c4.65 0 7.38-2.02 8.48-5.03h1.31v4.75c0 8.56-6.25 15.5-14.81 15.5s-14.88-6.94-14.88-15.5v-19.79c0-7.6-3.44-12.69-10.94-12.69-5.03 0-7.82 2.24-9.08 5.74h-1.31v-4.92h-6.73v32.81h7.38v-17.72c0-5.52 2.79-9.79 7.6-9.79 3.94 0 5.69 2.84 5.69 7.93v18.49s0 0 0 0c0 11.82 10.39 21.4 22.21 21.4s21.75-9.66 21.75-21.48v-31.64h-6.73v4.1zm-8.42 22.26c-4.54 0-7.22-3.66-7.22-10.83s2.68-10.77 7.27-10.77c4.87 0 7.82 4.27 7.82 10.77s-2.9 10.83-7.88 10.83z"/><path d="m320.17 20.66c3.83 0 6.18 2.57 6.73 7.05h7.27c-.98-7.93-5.96-12.58-14.11-12.58-9.51 0-14.98 6.4-14.98 17.23s5.14 17.23 14.93 17.23c8.15 0 13.01-4.7 14.16-12.58h-7.27c-.55 4.43-2.9 7.05-6.78 7.05-4.98 0-7.44-4.32-7.44-11.7s2.46-11.7 7.49-11.7z"/><path d="m362.44 20.23h-1.31c-1.31-2.79-4.27-5.03-9.02-5.03-8.75 0-13.29 6.84-13.29 17.12s4.43 17.17 13.29 17.17c4.81 0 7.71-2.3 9.02-4.98h1.31v4.27h6.73v-32.82h-6.73zm-8.69 23.67c-4.65 0-7.33-4.05-7.33-11.54s2.68-11.59 7.33-11.59c4.98 0 8.15 4.54 8.15 11.59s-3.17 11.54-8.15 11.54z"/><path d="m386.55 21.76h-1.31v-5.8h-6.67v32.81h7.38v-16.4c0-6.73 2.51-9.95 8.91-9.95h2.02v-6.78h-1.42c-6.4 0-8.26 3.12-8.91 6.12z"/><path d="m429.7 32.37c0-11.26-5.14-17.23-14.49-17.23-9.9 0-15.2 6.73-15.2 17.17s5.3 17.28 15.31 17.28c8.53 0 12.8-4.98 14-11.32h-7c-.87 3.44-3.17 5.85-7 5.85-5.03 0-7.76-3.99-8.15-9.95h22.53zm-22.48-3.12c.6-5.74 3.34-8.8 7.93-8.8s7.05 3.12 7.33 8.8z"/><path d="m12.04 7.53c-6.09 2.51-10.28 7.92-11.59 14.28-3 14.62 9.46 28.91 23.04 32.49 7.23 1.91 17.99-.34 19.47-8.94 1.61-9.29-8-11.3-12.9-16.61-3.29-3.56-5.56-11.8-11.78-10.37-6.75 1.55-7.18 9.55-4.45 14.72 2.28 4.3 9.46 10.53 14.68 9.67 1.18-.19 1.98-.98 1.28-2.16-.46-.77-1.06-.55-1.78-.77-5.52-1.69-10.75-4.98-12.22-10.99-.56-2.27-.09-6.39 2.38-7.42 3.21-1.34 5.82 4.9 7.12 6.89 2.82 4.29 7.21 5.84 10.83 9.06 9.07 8.06-.05 15.68-9.41 14.37-13.92-1.97-28.44-18.94-21.97-33.13 5.43-11.91 21.17-12.84 27.72-1.48.92 1.59 2.34 5.4 3.96 6.12.63.28 1.3.29 1.79-.23 1.2-1.28-.52-3.29-1.15-4.45-1.57-2.88-2.97-5.4-5.37-7.7-5.21-4.96-13.05-6.06-19.66-3.34z"/><path d="m14.36 13.29c-4.85 2.05-8.07 7.25-8.3 12.41-.54 12.3 13.58 25.22 25.85 22.99 1.23-.22 5-.97 3.66-2.93-.87-1.26-3.28-.2-4.52-.03-10.17 1.42-22.06-9.87-21.72-19.96.21-6.28 5.54-11.8 12.08-10.11 5.32 1.37 6.55 6.6 9.65 10.38 2.25 2.74 8.22 7.04 11.86 7.08 2.58.03 3.17-2.02.68-3.15-1.69-.77-3.4-1.06-5.14-2.03-5.29-2.95-6.09-6.95-9.57-11.18-3.51-4.27-9.45-5.63-14.53-3.48z"/><path d="m10.32 1.88c-1.05.44-3.49 1.52-4.26 2.22-1.02.93-.85 2.58.73 2.53 1.29-.04 3.35-1.49 4.65-2.03 8.25-3.46 17.92-1.15 23.55 5.8 1.73 2.13 2.75 4.31 4.18 6.56 1.14 1.78 3.75.67 3.09-1.28-.82-2.42-3.51-6.08-5.25-8.01-6.74-7.46-17.42-9.67-26.69-5.79z"/><path d="m19.24 24.68c-.93.22-1.11.81-1.02 1.65.24 2.38 1.98 5.39 3.79 6.94.72.62 3.1 2.11 4.01 1.83.6-.19 1.11-.78.75-1.39-.17-.29-1.57-1.16-1.98-1.54-2.18-2.04-3.14-4.65-4.51-7.23-.16-.17-.79-.3-1.02-.25z"/></g></svg>